# xmcd CD database file
#
# Track frame offsets:
#	150
#	18870
#	41887
#	70255
#	91607
#	113625
#	137050
#	163172
#
# Disc length: 2516 seconds
#
# Revision: 2
# Processed by: cddbd v1.5.1PL2 Copyright (c) Steve Scherf et al.
# Submitted via: CDex 1.60beta1-cs1
#
DISCID=6109d208
DTITLE=Wynton Marsalis - Hot House Flowers
DYEAR=1984
DGENRE=Jazz
TTITLE0=Stardust
TTITLE1=Lazy Afternoon
TTITLE2=For All We Know
TTITLE3=When You Wish Upon A Star
TTITLE4=Django
TTITLE5=Melancholia
TTITLE6=Hot House Flowers
TTITLE7=I'm Confessin' (That I Love You)
EXTD=YEAR: 1984
EXTT0=
EXTT1=
EXTT2=
EXTT3=
EXTT4=
EXTT5=
EXTT6=
EXTT7=
PLAYORDER=
